<?xml version="1.0" encoding="utf-8"?>
<!-- Generator: Adobe Illustrator 25.4.1, SVG Export Plug-In . SVG Version: 6.00 Build 0)  -->
<svg version="1.1" id="Calque_1" xmlns="http://www.w3.org/2000/svg" xmlns:xlink="http://www.w3.org/1999/xlink" x="0px" y="0px"
	 viewBox="0 0 1000 1000" style="enable-background:new 0 0 1000 1000;" xml:space="preserve">
<style type="text/css">
	.st0{fill:#6A3189;}
	.st1{fill:#EE7CAE;}
	.st2{fill:#FFFFFF;}
</style>
<g>
	<path class="st0" d="M796.9,703.5c-8.9,11.4-17.7,22.8-26.6,34.2c-7.5,9.6-14.9,19.2-22.4,28.8c-5.7,7.3-12.5,7.3-18.1,0
		c-29.7-39.3-59.4-78.5-89.1-117.8c-2.6-3.4-4.4-6.8-2.4-11c2-4.4,5.6-6.4,10.4-6.4c7.2,0,14.3,0,21.5,0c4.7,0,8,2.1,10.9,5.9
		c17.8,23.7,35.7,47.3,53.6,70.9c4.8,6.3,4,5.5,7.9,0.2c17.2-23.3,34.5-46.5,51.6-69.9c3.6-4.9,7.8-7.3,13.8-7.1
		c6.5,0.2,13-0.1,19.5,0.1c7.9,0.3,11.3,4,11.3,12c0,60.7,0,121.5,0,182.2c0,8.7-3.3,12-12.1,12c-5.7,0-11.3,0-17,0
		c-8.2,0-11.5-3.3-11.5-11.4c0-38.9,0-77.9,0-116.8c0-1.8,0-3.5,0-5.3C797.8,703.8,797.3,703.6,796.9,703.5z"/>
	<path class="st0" d="M220.8,631.2c13.3,0.2,29.5-1,45.6,0.8c41,4.8,64.8,33.8,62.4,75.2c-2.1,34.8-26.8,60.2-61.7,63.1
		c-19.8,1.6-39.6,0.5-59.4,0.6c-4.4,0-6,1-5.9,5.7c0.3,16.1,0.1,32.3,0.1,48.4c0,9.1-3.3,12.4-12.2,12.4c-6.2,0-12.3,0.1-18.5,0
		c-6.1-0.1-10-3.8-10-10c-0.1-28.5-0.1-56.9,0-85.4c0-6.7,4.1-10.4,11.3-10.4c26.3,0,52.6,0,78.9,0c6.3,0,12.6-0.2,18.7-2.3
		c9.5-3.2,15.3-9.6,17.3-19.5c0.8-3.9,0.9-7.9,0.6-11.9c-1.1-15.5-11-25.4-26.6-26.6c-4.6-0.3-9.3-0.5-14-0.5
		c-24.6-0.1-49.3,0-73.9,0c-9.3,0-12.4-3.2-12.5-12.7c0-4.8,0-9.6,0-14.5c0-8.9,3.4-12.4,12.3-12.5
		C188.4,631.1,203.2,631.2,220.8,631.2z"/>
	<path class="st0" d="M466.3,651.8c0,3.3,0.1,6.7,0,10c-0.2,5.2-2.7,8.6-8,9.9c-17.8,4.3-31.6,14.3-39.7,30.8
		c-9.4,19.4-10.1,39.5-2.3,59.9c7.4,19.5,21.4,31,41.3,36.1c6.2,1.5,8.6,4.7,8.7,11c0.1,6.3,0.2,12.6,0,19
		c-0.2,7.8-5.2,11.7-13,10.3c-46.7-8.2-81.4-49.2-82.8-97.8c-1.1-36.9,11.3-67.8,40.9-90.9c12.4-9.7,26.7-15.4,42.2-18.2
		c7.9-1.4,12.5,2.4,12.8,10.4C466.4,645.4,466.3,648.6,466.3,651.8z"/>
	<path class="st0" d="M483.5,818.4c0.2-14.2-2.6-16.7,15.3-22.2c23.6-7.2,38.5-29.1,39.7-56.6c1.1-23.6-5.9-44-25.7-58.6
		c-6.3-4.6-13.4-7.3-20.8-9.3c-6.5-1.8-8.4-4.3-8.5-11c-0.1-6.2-0.1-12.3,0-18.5c0.1-8,4.9-11.8,12.7-10.4
		c43.3,7.7,77,43.5,82.1,87.7c3.7,32.2-2.5,61.6-24.5,86.5c-15.3,17.2-34,28.5-56.9,32.6c-8.4,1.5-13.3-2.3-13.4-10.7
		C483.5,824.7,483.5,821.6,483.5,818.4z"/>
	<path class="st0" d="M637.5,802c0-8-0.1-16,0-23.9c0.1-7.9,3.7-11.5,11.7-11.7c5.8-0.1,11.6-0.1,17.5,0c7.6,0.1,11.6,3.8,11.7,11.2
		c0.2,16.3,0.2,32.6,0,48.9c-0.1,7.4-3.8,10.9-11.2,10.9c-6.1,0-12.3,0-18.4,0c-7.4,0-11-3.6-11.1-11
		C637.4,818.3,637.5,810.2,637.5,802z"/>
	<path class="st1" d="M699.5,161c-4.2,8.8-7.7,16.4-11.3,24c-10.7,22.3-21.6,44.6-32.2,66.9c-1.5,3.1-2.8,4.4-6.7,3.4
		c-20.6-5.6-35.2,7.4-42.6,26c-1.8,4.7-3.8,7-8.9,7.1c-5.1,0.1-10.2,1.4-15.1,3c-18.4,6.3-26,19.6-20.5,38.6
		c2.2,7.6,2.3,12.3-4.7,17.6c-7.1,5.5-7.4,16.1-1.2,26.1c4.5,7.2,7.5,12.8,1.2,21c-4.6,6-2.7,13.7,2,20c3.5,4.7,7.9,8.6,13.2,11.2
		c3.3,1.6,4.3,3,2.5,6.8c-11.7,23.9-23.1,47.9-34.6,71.9c-6.9,14.4-13.9,28.7-20.6,43.2c-2,4.4-4.1,5.3-8.8,3.9
		c-32.1-9.4-62.7-22.3-90.4-41.2C357,467.2,318.6,406.8,302.3,332c-2.9-13.5-2.6-13.4,10.4-18.6c32.6-12.9,65.1-26,97.8-38.8
		c62.8-24.8,125.6-49.4,188.4-74.1c32.2-12.7,64.3-25.4,96.5-38C696.2,162.1,697.2,161.8,699.5,161z M474.6,480.8
		c-0.3-0.3-0.7-0.5-1-0.8c-0.1,0.1-0.2,0.2-0.3,0.4C473.7,480.5,474.2,480.6,474.6,480.8c0.1,0.1,0.2,0.3,0.3,0.4
		c16.4,10.1,34.4,16.5,52.6,22.3c2.2,0.7,3-0.6,3.7-2.3c2.3-5,4.7-9.9,7.1-14.9c8-16.6,16-33.3,23.9-49.9c0.7-1.4,2.3-3.2,0.6-4.5
		c-4.9-3.8-9.2-8.2-13.2-13.5c-0.5,1.1-0.7,1.4-0.7,1.7c2.9,35.3-23.8,63.5-59.1,62.7C484.6,482.8,479.8,480.6,474.6,480.8z
		 M443.6,272.5c31.6,12.9,39,42.3,30.4,63.5c-9.3,22.9-34.8,35.4-57.5,28.6c-13.4-4-23.2-12.5-29.5-24.2
		c-7.8-14.5-7.3-29.9,0.7-45.1c-1.3,0-1.8-0.1-2.2,0c-11.2,4.4-22.3,8.8-33.5,13.1c-2.7,1-1.7,2.7-1.4,4.4
		c4.1,22.4,11.9,43.6,22.2,63.9c15.6,30.8,37,57.2,63.6,79.2c5.1,4.2,9.9,8.9,16.2,11.5c-25.1-24.6-22-64,2.6-84.7
		c11.6-9.8,24.9-14.6,40.1-13.6c22.9,1.5,38.8,13.6,49.9,34.7c0.4-5.7,0.9-9.9,3.1-13.4c2.5-3.8,1.9-6.8-0.3-10.5
		c-7.7-13.1-8.9-30,3.8-41c2.1-1.9,0.8-3.6,0.5-5.5c-0.3-2.2-2-2.3-3.8-2.2c-4.7,0.2-9.3-0.1-13.6-2.5c-2.3-1.3-3.2-0.5-3.5,2
		c-0.8,6.1-2,12.1-2.6,18.3c-0.3,3.5-1.8,4.2-5.1,4.3c-10.2,0.2-20.3,0.8-29.4,6.3c-1,0.6-2.3,2-3.5,0.8c-1-1.1,0-2.5,0.4-3.7
		c3.2-9.8,6.4-19.6,9.7-29.4c2.8-8.3,2.8-8.3-5.4-10.6c-14.6-4.2-19.6-14.2-13.8-28.3c3.2-7.8,8.4-14.3,14-20.5
		c14.1-15.5,41.9-13.7,53-5.4c7.9,5.9,12.6,14.1,16.1,23c0.9,2.1,1.5,3,3.8,1.6c7.7-4.6,16-7.2,24.9-8.1c2.6-0.3,4.4-1.4,4.2-4.8
		c-17.1,4.1-30.6-1.4-38.7-16.8c-8.3-15.6,2.3-25.4,12.4-35.4C529.3,238.7,486.8,255.4,443.6,272.5z M429.6,280.8
		c-21,0-38.5,17-38.2,38.2c0.3,20.8,15.5,38,38.1,37.3c21.1-0.7,37.9-17,38-38.1C467.6,297.4,450.7,280.8,429.6,280.8z M510.6,308.2
		c0.3,0,1.8,0,3.3,0c5.2-0.1,5.3,0.1,3.1,4.8c-3.5,7.5-6,15.5-8.7,23.3c-2.8,8.2-2.8,8.1,5.6,7.7c4.5-0.2,6.4-1.8,6.8-6.4
		c0.9-9.2,2.6-18.4,3.7-27.6c0.4-3.9,3.2-3.4,5.5-3.4c2.3,0,4.8,0.1,4.8,4c0.1,6.3,2.9,9.4,8,10.4c1.7,0.3,3.3,0.5,4.2-1.5
		c3.8-8.3,7.6-16.6,9.6-25.6c0.4-1.6,0.1-3.3-0.6-4.9c-8.7-20.4-17.7-25.3-39.3-22.1c-11.5,1.7-25.4,17.9-27.2,29.3
		c-0.7,4.4,0.8,7.4,4.8,9.3C499.1,307.9,504.2,308.4,510.6,308.2z M603.7,234.7c4.7,10.3-2.2,24.6-12.8,27.3
		c-2.9,0.7-5.6,0.5-8.2-1.1c-5.7-3.5-9.9-13.4-8.8-20c0.6-3.7,2.2-6.2,5.4-8.4c8.9-6.1,18.8-8,29.2-8.2c9.4-0.1,14.1,5.3,12.6,14.6
		c-0.5,3.4-1.6,6.6-2.4,10.1c1-0.1,1.5,0.1,1.9-0.1c8-4.3,16.6-5.8,25.6-4.3c2.3,0.4,2.9-1,3.6-2.6c9.2-19.3,18.5-38.7,27.7-58
		c0.5-1,1.5-2.2,0.6-3.2c-1.1-1.3-2.5-0.1-3.6,0.4c-12.5,4.9-25.1,9.9-37.6,14.8c-8.4,3.3-16.9,6.7-25.3,10.1
		c8.1,2,14.4,5.6,17.9,13.2c2.4,5.1,2.8,10.5,3,16c0.1,4.1-1.2,5.3-5.2,4.7c-3-0.5-5.2-0.9-4.5-4.8c0.3-1.7-0.3-3.6-0.4-5.4
		c-0.8-9.9-6.6-14.3-16.3-12.1c-11.2,2.5-21.3,7.7-30.3,14.6c-11.4,8.8-12.5,16.8-4.4,26c8,9.1,26.5,11.8,33.4-3.4
		c2-4.4,4.3-8.6,5.7-13.3C612.8,234.2,612,233.3,603.7,234.7z M492.8,393.8c-22.6-0.1-40.1,16.9-40.3,39.3
		c-0.2,22.1,17.1,39.7,39.2,39.9c22.2,0.2,40.7-17.7,40.5-39.3C532.1,411.5,514.7,393.9,492.8,393.8z M447.7,412
		c9.6-18,24.4-27.9,44.9-28c20.6,0,34.9,10.8,44.9,29.3c-4-17.8-23-33.9-42.9-34.7C471.4,377.7,451.3,394.8,447.7,412z M583.4,244.4
		c0.8,3,1.2,6.7,4.9,8.1c1.6,0.6,7.1-5.6,7-7.6c0-1.1-6.6-6.6-7.8-6.3C585,239.4,583.5,241.2,583.4,244.4z"/>
	<path class="st2" d="M474.6,480.8c-0.4-0.1-0.9-0.2-1.3-0.3c0.1-0.1,0.2-0.2,0.3-0.4C473.9,480.3,474.2,480.6,474.6,480.8
		C474.6,480.8,474.6,480.8,474.6,480.8z"/>
	<path class="st1" d="M459.4,429.5c0-18.6,14.3-32.8,32.9-32.8c18.5,0,32.6,14.3,32.6,33c0,18.1-14.3,33-32.5,32.7
		C470.2,462.2,458.5,443.9,459.4,429.5z M491.9,406.1c-12.6,0.2-23.3,11.3-23.1,24c0.2,12.3,11.4,23,23.9,22.7
		c12.3-0.2,22.8-10.9,22.7-23.2C515.4,416.8,504.5,405.9,491.9,406.1z"/>
	<path class="st1" d="M497.5,435c-5-0.1-9.1-4.3-9-9.3c0.1-4.7,4.9-9.5,9.3-9.5c4.7,0.1,9.5,5.3,9.3,10
		C506.9,431.3,502.8,435.1,497.5,435z"/>
</g>
</svg>
